<?xml version="1.0" standalone="no"?>
<!DOCTYPE svg PUBLIC "-//W3C//DTD SVG 20010904//EN"
 "http://www.w3.org/TR/2001/REC-SVG-20010904/DTD/svg10.dtd">
<svg version="1.0" xmlns="http://www.w3.org/2000/svg"
 width="263.000000pt" height="114.000000pt" viewBox="0 0 263.000000 114.000000"
 preserveAspectRatio="xMidYMid meet">

<g transform="translate(0.000000,114.000000) scale(0.100000,-0.100000)"
fill="#000000" stroke="none">
<path d="M80 909 l0 -171 81 4 c77 3 82 5 110 36 40 44 40 93 0 132 -28 28
-28 30 -10 46 21 19 25 55 9 84 -13 25 -62 40 -131 40 l-59 0 0 -171z m124
115 c19 -7 21 -45 4 -62 -7 -7 -27 -12 -45 -12 -32 0 -33 1 -33 40 0 38 2 40
29 40 16 0 36 -3 45 -6z m20 -140 c20 -20 20 -58 0 -78 -9 -9 -32 -16 -55 -16
l-39 0 0 55 0 55 39 0 c23 0 46 -7 55 -16z"/>
<path d="M985 991 c-4 -7 -22 -9 -45 -5 -51 8 -97 -11 -116 -48 -17 -33 -11
-79 11 -98 13 -11 13 -15 0 -33 -19 -27 -19 -32 1 -51 10 -11 34 -16 74 -16
62 0 80 -11 60 -35 -15 -18 -59 -19 -94 -4 -20 9 -29 9 -41 -1 -23 -19 -18
-30 22 -47 77 -32 173 5 173 67 0 47 -21 63 -89 68 -33 2 -58 8 -56 13 3 4 21
5 40 2 29 -5 39 -1 66 26 28 29 31 36 26 75 -4 24 -2 47 4 53 6 6 3 15 -10 27
-12 11 -21 14 -26 7z m-37 -63 c30 -30 3 -82 -40 -76 -29 4 -47 50 -28 72 15
19 51 21 68 4z"/>
<path d="M2341 948 c-1 -59 -11 -72 -31 -40 -9 14 -10 12 -5 -10 7 -34 -2 -35
-56 -7 -42 21 -44 14 -6 -28 l20 -23 -89 -1 c-87 -1 -88 -1 -45 -13 l44 -11
-37 -28 c-25 -20 -43 -26 -57 -22 -21 7 -79 -11 -79 -25 0 -4 -36 -9 -79 -12
-142 -8 -246 -78 -303 -204 -34 -75 -32 -190 4 -265 35 -70 97 -132 168 -167
47 -23 67 -27 145 -27 82 0 97 3 157 33 127 62 193 172 186 312 -2 58 -10 89
-32 135 -20 40 -29 72 -27 96 1 21 -2 40 -8 44 -18 10 -13 21 14 33 38 18 47
15 34 -9 -10 -19 -8 -20 10 -14 l21 6 -20 -47 c-11 -26 -19 -48 -17 -50 1 -2
22 21 46 51 23 30 46 55 51 55 4 0 11 -34 15 -75 4 -41 11 -75 16 -75 12 0 11
117 -1 125 -5 3 -10 15 -10 26 0 25 -18 24 -47 -3 l-23 -22 2 53 c3 55 -7 70
-47 71 -18 1 -18 2 2 10 14 6 20 15 17 23 -3 10 3 14 23 14 38 1 82 8 90 16 9
9 33 -12 33 -29 0 -8 7 -14 16 -14 14 0 14 -3 4 -16 -11 -13 -10 -16 8 -21 13
-3 22 -13 22 -24 0 -23 7 -24 27 -4 18 19 17 19 -22 32 l-30 10 53 27 c30 15
52 29 49 32 -2 3 -26 0 -51 -7 -53 -13 -67 -7 -43 19 25 27 21 37 -8 18 -32
-21 -35 -21 -35 12 l0 27 -19 -25 -19 -25 -7 30 c-20 88 -23 92 -24 33z m-120
-175 c-9 -35 -31 -42 -31 -10 0 26 7 37 26 37 8 0 10 -8 5 -27z m30 4 c-13
-13 -26 -3 -16 12 3 6 11 8 17 5 6 -4 6 -10 -1 -17z m-71 -26 c0 -17 -4 -33
-10 -36 -11 -7 -25 39 -15 54 12 21 25 11 25 -18z m-30 -43 c0 -27 -19 -31
-30 -6 -10 21 -10 21 -5 -5 4 -20 2 -28 -6 -25 -21 7 -20 23 2 52 17 21 24 25
30 14 5 -7 9 -21 9 -30z m0 -181 c25 -19 50 -60 50 -81 0 -57 -78 -75 -124
-29 -35 35 -42 67 -22 98 18 28 69 34 96 12z m-20 -157 c30 -16 43 -46 30 -71
-15 -27 -47 -21 -73 12 -15 22 -17 30 -8 48 13 23 23 26 51 11z"/>
<path d="M350 898 c0 -55 6 -103 13 -118 17 -34 58 -47 107 -33 22 5 40 6 40
2 0 -5 14 -9 30 -9 l30 0 0 125 0 125 -30 0 -29 0 -3 -92 c-3 -91 -3 -93 -31
-102 -51 -18 -62 -1 -65 103 l-3 91 -29 0 -30 0 0 -92z"/>
<path d="M630 865 l0 -125 30 0 30 0 0 83 c0 71 3 87 20 102 12 11 29 16 45
13 14 -3 25 -2 25 1 0 3 3 16 6 29 6 19 3 22 -25 22 -18 0 -41 -5 -52 -10 -13
-7 -19 -7 -19 0 0 5 -13 10 -30 10 l-30 0 0 -125z"/>
<path d="M1118 974 c-37 -19 -58 -63 -58 -118 0 -36 6 -52 29 -78 27 -31 34
-33 94 -33 36 0 68 3 72 7 4 4 5 19 1 33 -5 21 -10 24 -26 15 -35 -19 -77 -12
-100 18 l-22 27 91 3 91 3 0 35 c0 45 -23 80 -62 93 -42 15 -78 13 -110 -5z
m104 -51 c29 -26 21 -33 -42 -33 -62 0 -71 7 -44 34 20 21 63 20 86 -1z"/>
<path d="M1340 865 l0 -125 30 0 30 0 0 83 c0 71 3 87 20 102 12 11 29 16 45
13 14 -3 25 -2 25 1 0 3 3 16 6 29 6 19 3 22 -25 22 -18 0 -41 -5 -52 -10 -13
-7 -19 -7 -19 0 0 5 -13 10 -30 10 l-30 0 0 -125z"/>
<path d="M2414 725 c5 -19 3 -23 -9 -19 -10 4 -15 0 -15 -11 0 -9 4 -14 9 -11
5 4 24 -6 41 -21 l32 -27 -27 53 -27 54 24 -6 c13 -3 41 -8 63 -12 35 -5 37
-4 20 6 -11 7 -42 14 -69 16 -47 3 -48 2 -42 -22z"/>
<path d="M1178 482 l-28 -3 0 -195 c0 -185 1 -194 19 -194 11 0 22 4 26 10 4
6 15 6 31 0 67 -26 133 1 165 67 52 108 -25 218 -142 199 l-38 -6 -3 62 c-3
62 -3 63 -30 60z m139 -184 c52 -49 15 -158 -55 -158 -42 0 -52 17 -52 90 0
38 5 71 12 78 19 19 70 14 95 -10z"/>
<path d="M80 281 l0 -191 75 0 c124 0 180 36 180 117 0 38 -5 49 -32 73 -31
28 -31 29 -12 46 15 13 19 28 17 57 -5 61 -38 81 -144 86 l-84 3 0 -191z m151
119 c43 -24 11 -80 -47 -80 -34 0 -34 0 -34 45 0 44 1 45 31 45 17 0 39 -5 50
-10z m17 -146 c30 -20 30 -68 0 -88 -12 -9 -39 -16 -60 -16 l-38 0 0 60 0 60
38 0 c21 0 48 -7 60 -16z"/>
<path d="M443 350 c-47 -28 -66 -72 -61 -137 4 -44 11 -60 37 -86 28 -29 37
-32 91 -32 54 0 63 3 91 32 27 26 33 41 37 89 4 43 0 66 -13 90 -32 61 -120
82 -182 44z m113 -51 c26 -29 26 -109 0 -138 -24 -27 -67 -27 -91 -1 -26 28
-26 112 0 140 24 26 67 26 91 -1z"/>
<path d="M700 230 l0 -140 30 0 29 0 3 107 3 108 28 9 c52 19 62 2 65 -118 l3
-106 29 0 29 0 3 107 3 108 28 9 c52 19 62 2 65 -118 l3 -106 29 0 30 0 0 109
c0 60 -3 117 -6 126 -15 39 -97 57 -143 31 -20 -11 -28 -11 -50 0 -34 18 -81
18 -108 -1 -19 -13 -22 -13 -27 0 -3 8 -15 15 -26 15 -19 0 -20 -6 -20 -140z"/>
</g>
</svg>
